<svg data-v-0dd9719b="" version="1.0" xmlns="http://www.w3.org/2000/svg" xmlns:xlink="http://www.w3.org/1999/xlink" width="100%" height="100%" viewBox="0 0 340.000000 250.000000" preserveAspectRatio="xMidYMid meet" color-interpolation-filters="sRGB" style="margin: auto;"> <rect data-v-0dd9719b="" x="0" y="0" width="100%" height="100%" fill="#ffffff" fill-opacity="1" class="background"></rect> <rect data-v-0dd9719b="" x="0" y="0" width="100%" height="100%" fill="url(#watermark)" fill-opacity="1" class="watermarklayer"></rect> <g data-v-0dd9719b="" fill="#333" class="icon-text-wrapper icon-svg-group iconsvg" transform="translate(40.399993896484375,97.3217830657959)"><g class="iconsvg-imagesvg" transform="translate(0,0)"><g><rect fill="#333" fill-opacity="0" stroke-width="2" x="0" y="0" width="55" height="54.979107938983184" class="image-rect"></rect> <svg x="0" y="0" width="55" height="54.979107938983184" filtersec="colorsb1009745331" class="image-svg-svg primary" style="overflow: visible;"><svg xmlns="http://www.w3.org/2000/svg" viewBox="-0.024392234161496162 -0.00439166696742177 206.4888916015625 206.41061401367188"><title>资源 7</title><g fill-rule="evenodd"><path d="M176.24 176.18a102.91 102.91 0 0 1-76.44 30.16c-8.75-.29-10.94-10.72-6.79-17 17.92-27.07 75.72-28.09 101.23-60a56.23 56.23 0 0 0 10.57-21.88c.56-2.21 1.26-4.67 1.63-6.42a102.92 102.92 0 0 1-30.2 75.1z" fill="#03b2de" opacity=".48"></path><path d="M176.18 176.24a102.92 102.92 0 0 0 30.16-76.44c-.29-8.76-10.73-10.94-17-6.79C168.21 107 163 145.3 146.5 173.56c-9.44 16.21-25.92 31.19-45.38 32.82a102.78 102.78 0 0 0 75.06-30.14z" fill="#8e03ff" opacity=".48"></path><path d="M30.22 30.28A102.94 102.94 0 0 1 106.66.12c8.77.29 10.94 10.73 6.79 17-17.91 27.07-75.72 28.09-101.23 60A56.23 56.23 0 0 0 1.65 99c-.56 2.17-1.25 4.63-1.65 6.38a102.93 102.93 0 0 1 30.2-75.1z" fill="#00deb9" opacity=".48"></path><path d="M30.28 30.22A102.94 102.94 0 0 0 .12 106.66c.29 8.77 10.73 10.94 17 6.79 27.07-17.91 28.09-75.72 60-101.23A56.23 56.23 0 0 1 99 1.65c2.21-.56 4.67-1.25 6.42-1.63a102.93 102.93 0 0 0-75.1 30.2z" fill="#1d88e1" opacity=".48"></path><path d="M44 187.8c-32.11-55.4 181.83-82.46 145-142a103.71 103.71 0 0 0-26.5-27.07c25.84 44.36-100 69.18-138.89 106.54C12.3 136.12 10.9 151.63 20 164.34a103.82 103.82 0 0 0 24 23.46z" fill="#8e03ff" opacity=".48"></path><path d="M187.75 44c-51.41-29.78-77.2 148.08-127.43 150-4.47.18-9.6-2-14.56-5a103.71 103.71 0 0 1-27.07-26.5C71.5 193.28 96.63 9 148.17 12.54c4.69.32 10.6 3.57 16.11 7.51a104.32 104.32 0 0 1 23.47 24z" fill="#1d88e1" opacity=".48"></path></g></svg></svg> <!----></g></g> <g transform="translate(62,1.6226768493652344)"><g data-gra="path-name" fill-rule="" class="tp-name iconsvg-namesvg" transform="translate(0,0)"><g transform="scale(1)"><g><path d="M13.52-6.2L13.52-6.2 26.68-6.2 26.68-9.8 13.8-9.8Q13.8-7.64 13.52-6.2ZM26.68-10.92L26.68-14.44 13.8-14.44 13.8-10.92 26.68-10.92ZM14.52-15.6L31.4-15.6 31.4-1.52Q31.4 0.88 30.16 2L30.16 2Q28.96 3.16 25.16 3.48L25.16 3.48Q24.96 1.32 24.16 0.52L24.16 0.52Q22.92-0.52 20.4-0.92L20.4-0.92 20.4-1.44Q24.8-1.12 25.84-1.12L25.84-1.12Q26.68-1.12 26.68-1.92L26.68-1.92 26.68-5.08 13.28-5.08Q11.72 0.88 5.04 3.72L5.04 3.72 4.72 3.32Q7.4 0.76 8.24-2.44 9.08-5.64 9.08-9.8L9.08-9.8 9.08-17.52 14.52-15.6ZM22.24-19.48L38.6-19.48 38.6-18.36 1.92-18.36 1.56-19.48 17.52-19.48 17.52-23.28 6.56-23.28 6.24-24.4 17.52-24.4 17.52-27.96 4.28-27.96 4-29.08 17.52-29.08 17.52-34 22.24-33.48 22.24-29.08 36.68-29.08 36.68-27.96 22.24-27.96 22.24-24.4 34.2-24.4 34.2-23.28 22.24-23.28 22.24-19.48ZM62.76-11L67.12-10.48 67.12-1.72Q67.12-1.56 66.56-1.36L66.56-1.36Q66.04-1.16 65.16-1L65.16-1Q64.32-0.84 63.48-0.84L63.48-0.84 62.76-0.84 62.76-1.84 44.6-1.84 44.6-10.68 48.88-10.12Q48.88-10.12 48.88-3L48.88-3 53.56-3 53.56-12.36 57.92-11.88 57.92-3 62.76-3 62.76-11ZM52.16-15.04L76.8-15.04 76.8-13.2Q76.36-5.72 75.56-2.24L75.56-2.24Q74.76 1.2 73.24 2.48L73.24 2.48Q72.28 3.24 71.04 3.44L71.04 3.44Q69.84 3.68 67.84 3.72L67.84 3.72Q67.84 2.2 67.2 1.4L67.2 1.4Q66.44 0.56 64.08 0.04L64.08 0.04 64.08-0.48Q66.72-0.24 68.36-0.24L68.36-0.24Q69.28-0.24 69.68-0.68L69.68-0.68Q71.48-2 72.2-13.92L72.2-13.92 47.48-13.92 47.48-31.16 54.64-29.08Q54.72-29.56 55.08-34.2L55.08-34.2 59.92-33.08Q59.52-31.64 57-29.08L57-29.08 72-29.08 72-27.24Q71.64-22.56 70.92-20.24L70.92-20.24Q70.24-17.92 68.88-16.96L68.88-16.96Q67.4-15.92 64.12-15.92L64.12-15.92Q64.12-17.6 63.52-18.36L63.52-18.36Q62.76-19.2 60.64-19.68L60.64-19.68 60.64-20.2Q62.88-19.96 64.52-19.96L64.52-19.96Q65.32-19.96 65.76-20.28L65.76-20.28Q67-21.28 67.48-27.96L67.48-27.96 52.16-27.96 52.16-15.04ZM54.16-25.92L54.16-25.92 54.48-26.16Q59.92-26.08 61.4-23.64L61.4-23.64Q62.28-22.16 61.28-20.88L61.28-20.88Q60.2-19.6 58.44-20.2L58.44-20.2Q58.12-20.32 57.8-20.48L57.8-20.48Q56.96-23.2 54.16-25.92ZM102 1L118.28 1 118.28 2.16Q118.28 2.16 82.28 2.16L82.28 2.16 81.96 1 97.12 1 97.12-11.6 84.28-11.6 83.96-12.72 97.12-12.72 97.12-18.64 90.44-18.64 90.12-19.8 109.48-19.8 109.48-18.64 102-18.64 102-12.72 116.4-12.72 116.4-11.6 102-11.6 102 1ZM87.84-9.84L87.84-9.84 88.24-10.04Q93.28-7.96 94.28-4.72L94.28-4.72Q94.96-2.6 93.64-1.32L93.64-1.32Q92.36-0.04 90.68-1L90.68-1Q90.2-1.28 89.76-1.72L89.76-1.72Q89.88-5.4 87.84-9.84ZM104.56-0.36L104.56-0.36 104.08-0.68Q105.36-4.08 107.04-10.32L107.04-10.32 111.68-8Q108-2.88 104.56-0.36ZM96.88-34.2L96.88-34.2 104.24-32.28Q104.04-31.52 102.24-31.36L102.24-31.36Q106.44-25.64 119.36-21.88L119.36-21.88 119.32-21.24Q117.8-20.84 116.72-19.48L116.72-19.48Q115.68-18.16 115.4-16.6L115.4-16.6Q104.92-22.2 101.56-30.88L101.56-30.88Q98.6-26.32 92.84-21.88L92.84-21.88Q87.08-17.48 81.12-15.08L81.12-15.08 80.84-15.52Q86-18.92 90.8-24.4L90.8-24.4Q95.6-29.92 96.88-34.2ZM138.36-33.32L138.36-33.32 138.76-33.52Q144.04-32.16 145.28-29.24L145.28-29.24Q146.04-27.36 144.88-26.12L144.88-26.12Q143.72-24.88 142.04-25.72L142.04-25.72Q141.68-25.88 141.36-26.16L141.36-26.16Q140.92-29.6 138.36-33.32ZM151.68-15.04L151.68-23.64 141.72-23.64 141.72-15.04 151.68-15.04ZM157.52-7.2L157.96-7.2 158.08-1.48Q159.32-0.88 159.32 0.36L159.32 0.36Q159.32 1.64 158 2.24L158 2.24Q156.68 2.88 153.44 2.88L153.44 2.88 151.04 2.88Q148.72 2.88 148 2.12L148 2.12Q147.32 1.4 147.32-0.76L147.32-0.76 147.32-13.88 145.6-13.88Q145.12-7.04 142.36-2.92L142.36-2.92Q139.64 1.2 133.08 3.52L133.08 3.52 132.84 2.96Q137.32 0.16 139.08-3.56L139.08-3.56Q140.84-7.32 141.12-12.88L141.12-12.88Q139.6-12.12 138.04-12.12L138.04-12.12 137.44-12.12 137.44-20.36Q137.12-20.28 136.92-20.28L136.92-20.28 131.68-20.28 131.68-17Q136.36-15.52 137.28-12.76L137.28-12.76Q137.84-11.04 136.68-10L136.68-10Q135.48-8.96 134-9.96L134-9.96Q133.8-10.12 133.6-10.28L133.6-10.28Q133.48-12.88 131.68-15.96L131.68-15.96 131.68 2.28Q131.68 2.48 131.24 2.76L131.24 2.76Q130.8 3.08 129.88 3.32L129.88 3.32Q129 3.6 127.96 3.6L127.96 3.6 127.16 3.6 127.16-10.32Q124.56-6.4 121.16-3.44L121.16-3.44 120.68-3.92Q124.72-10 126.56-20.28L126.56-20.28 121.72-20.28 121.4-21.4 127.16-21.4 127.16-27.4Q124.08-26.88 121.24-26.72L121.24-26.72 121.08-27.16Q124.04-28.36 127.24-30.2L127.24-30.2Q130.48-32.08 132.28-33.64L132.28-33.64 134.92-29.2Q132.8-28.48 131.68-28.24L131.68-28.24 131.68-21.4 131.96-21.4 134.16-24.52Q136-22.84 137.44-21.48L137.44-21.48 137.44-26.52 141.92-24.8 147.24-24.8Q149.2-29 150.2-34L150.2-34 154.68-32.16Q151.92-27.64 148.16-24.8L148.16-24.8 156.16-24.8 156.16-13.68Q156.12-13.56 155.64-13.28L155.64-13.28Q155.2-13 154.32-12.76 153.44-12.52 152.56-12.52L152.56-12.52 151.68-12.52 151.68-13.88 151.64-1.84Q151.64-1.44 151.76-1.32L151.76-1.32Q151.92-1.2 152.4-1.2L152.4-1.2 155.24-1.2Q155.68-1.2 155.92-1.72L155.92-1.72Q156.24-2.32 157.52-7.2L157.52-7.2ZM194.76-29.96L194.76-28.84 165.8-28.84 165.48-29.96 194.76-29.96ZM161.4-18.96L198.76-18.96 198.76-17.8 178.32-17.8 183.56-15Q183.2-14.32 182.04-14.44L182.04-14.44Q179.88-11.72 176-8.4 172.12-5.08 168.44-2.8L168.44-2.8Q175.6-2.84 190.16-3.4L190.16-3.4Q187.72-7.96 184.12-12.28L184.12-12.28 184.56-12.52Q193.08-9 196.08-3.68L196.08-3.68Q197.96-0.4 196.96 1.96L196.96 1.96Q196.24 3.76 194.44 3.48L194.44 3.48Q193.56 3.36 192.6 2.64L192.6 2.64Q192.04 0.4 190.76-2.28L190.76-2.28Q181.8-0.32 167.84 1.96L167.84 1.96Q167.28 2.64 166.52 2.84L166.52 2.84 164.76-3.16Q165.96-3.4 166.44-3.76L166.44-3.76Q168.96-5.48 172.2-9.88L172.2-9.88Q175.48-14.32 176.96-17.8L176.96-17.8 161.72-17.8 161.4-18.96Z" transform="translate(-1.559999942779541, 34.20000076293945)"></path></g> <!----> <!----> <!----> <!----> <!----> <!----> <!----></g></g> <g data-gra="path-slogan" fill-rule="" class="tp-slogan iconsvg-slogansvg" fill="#333" transform="translate(5,45.92000198364258)"><rect x="0" height="1" y="3.4050002098083496" width="38.339996337890625"></rect> <rect height="1" y="3.4050002098083496" width="34.339996337890625" x="152.86000061035156"></rect> <g transform="translate(41.339996337890625,0)"><g transform="scale(1)"><path d="M4.92-0.90L4.18-1.48L4.69-2.07L5.59-1.37Q6.41-2.19 6.41-3.55L6.41-3.55Q6.25-6.37 3.91-6.52L3.91-6.52Q1.52-6.41 1.41-3.55L1.41-3.55Q1.52-0.78 3.91-0.66L3.91-0.66Q4.49-0.66 4.92-0.90L4.92-0.90ZM6.37-0.78L7.30-0.04L6.84 0.47L5.74-0.27Q5.04 0.12 3.91 0.12L3.91 0.12Q0.63 0 0.39-3.55L0.39-3.55Q0.59-7.27 3.91-7.34L3.91-7.34Q7.15-7.23 7.38-3.55L7.38-3.55Q7.34-1.84 6.37-0.78L6.37-0.78ZM8.67-7.15L9.65-7.15L9.65 0L8.67 0L8.67-7.15ZM12.46-7.15L16.05-1.37L16.05-7.15L16.99-7.15L16.99 0L15.90 0L12.27-5.78L12.23-5.78L12.23 0L11.29 0L11.29-7.15L12.46-7.15ZM23.83-3.01L21.64-3.01L21.64-3.83L24.77-3.83L24.77 0L24.14 0L23.91-0.90Q23.09 0.08 21.56 0.12L21.56 0.12Q20.12 0.12 19.34-0.63L19.34-0.63Q18.16-1.72 18.20-3.63L18.20-3.63Q18.48-7.19 21.60-7.34L21.60-7.34Q24.26-7.19 24.65-5L24.65-5L23.71-5Q23.32-6.48 21.56-6.52L21.56-6.52Q19.34-6.37 19.22-3.59L19.22-3.59Q19.22-0.63 21.60-0.63L21.60-0.63Q22.46-0.63 23.09-1.09L23.09-1.09Q23.87-1.72 23.83-3.01L23.83-3.01ZM29.18 0L26.29 0L26.29-7.15L29.22-7.15Q32.11-6.99 32.23-3.67L32.23-3.67Q32.07-0.08 29.18 0L29.18 0ZM29.06-6.37L27.27-6.37L27.27-0.82L29.14-0.82Q31.17-0.94 31.25-3.59L31.25-3.59Q31.21-6.29 29.06-6.37L29.06-6.37ZM38.16 0L37.46-2.07L34.57-2.07L33.83 0L32.85 0L35.55-7.15L36.64-7.15L39.22 0L38.16 0ZM36.02-6.09L34.88-2.93L37.11-2.93L36.05-6.09L36.02-6.09ZM45.74-3.55L45.74-3.55Q45.59-6.37 43.24-6.52L43.24-6.52Q40.86-6.41 40.74-3.55L40.74-3.55Q40.86-0.78 43.24-0.66L43.24-0.66Q45.59-0.82 45.74-3.55ZM46.72-3.55L46.72-3.55Q46.48 0 43.24 0.12L43.24 0.12Q39.96 0 39.73-3.55L39.73-3.55Q39.92-7.27 43.24-7.34L43.24-7.34Q46.48-7.23 46.72-3.55ZM50.04-1.60L50.04-2.30L50.94-2.30L50.94-1.80Q50.94-0.63 52.03-0.63L52.03-0.63Q53.16-0.63 53.16-1.88L53.16-1.88L53.16-7.15L54.14-7.15L54.14-1.91Q54.10 0.08 52.07 0.12L52.07 0.12Q50.16 0.08 50.04-1.60L50.04-1.60ZM55.78-7.15L56.76-7.15L56.76 0L55.78 0L55.78-7.15ZM59.57-7.15L63.16-1.37L63.16-7.15L64.10-7.15L64.10 0L63.01 0L59.38-5.78L59.34-5.78L59.34 0L58.40 0L58.40-7.15L59.57-7.15ZM70.82-5.08L70.82-5.08L69.92-5.08Q69.84-6.45 68.13-6.52L68.13-6.52Q66.52-6.48 66.52-5.27L66.52-5.27Q66.52-4.49 67.38-4.38L67.38-4.38L69.41-3.91Q71.02-3.52 71.02-1.95L71.02-1.95Q70.98 0.04 68.20 0.12L68.20 0.12Q66.68 0.12 66.05-0.51L66.05-0.51Q65.27-1.09 65.31-2.30L65.31-2.30L66.25-2.30Q66.29-0.66 68.20-0.63L68.20-0.63Q70.08-0.66 70.12-1.84L70.12-1.84Q70.27-2.81 68.55-3.13L68.55-3.13L67.07-3.44Q65.55-3.87 65.55-5.16L65.55-5.16Q65.66-7.27 68.05-7.34L68.05-7.34Q70.74-7.34 70.82-5.08ZM73.20-4.22L76.95-4.22L76.95-7.15L77.93-7.15L77.93 0L76.95 0L76.95-3.32L73.20-3.32L73.20 0L72.23 0L72.23-7.15L73.20-7.15L73.20-4.22ZM84.14-2.66L84.14-7.15L85.12-7.15L85.12-2.54Q85 0.04 82.19 0.12L82.19 0.12Q79.57 0.04 79.45-2.38L79.45-2.38L79.45-7.15L80.43-7.15L80.43-2.66Q80.47-0.70 82.23-0.66L82.23-0.66Q84.14-0.70 84.14-2.66L84.14-2.66ZM86.76-7.15L87.73-7.15L87.73 0L86.76 0L86.76-7.15ZM95.16-7.15L92.46-2.89L92.46 0L91.48 0L91.48-2.89L88.79-7.15L89.92-7.15L91.95-3.71L94.02-7.15L95.16-7.15ZM100.74-2.66L100.74-7.15L101.72-7.15L101.72-2.54Q101.60 0.04 98.79 0.12L98.79 0.12Q96.17 0.04 96.05-2.38L96.05-2.38L96.05-7.15L97.03-7.15L97.03-2.66Q97.07-0.70 98.83-0.66L98.83-0.66Q100.74-0.70 100.74-2.66L100.74-2.66ZM104.38-7.15L107.97-1.37L107.97-7.15L108.91-7.15L108.91 0L107.81 0L104.18-5.78L104.14-5.78L104.14 0L103.20 0L103.20-7.15L104.38-7.15Z" transform="translate(-0.390625, 7.34375)"></path></g></g></g></g></g><defs v-gra="od"></defs></svg>